#define cinq_width 8
#define cinq_height 22
static unsigned char cinq_bits[] = {
   0x00, 0xfc, 0xfc, 0xcc, 0xcc, 0xcc, 0xcc, 0x8c, 0x8c, 0x00, 0x00, 0x00,
   0x19, 0x30, 0x30, 0x30, 0x30, 0x30, 0x39, 0x1f, 0x0f, 0x00 };
