#define deux_width 8
#define deux_height 22
static unsigned char deux_bits[] = {
   0x00, 0x18, 0x0c, 0x0c, 0x0c, 0x0c, 0x9c, 0xf8, 0xf0, 0x00, 0x00, 0x00,
   0x30, 0x38, 0x3c, 0x3e, 0x37, 0x33, 0x31, 0x30, 0x00, 0x00 };
