#define gr_width 8
#define gr_height 24
static unsigned char gr_bits[] = {
   0x00, 0xc0, 0xe0, 0x30, 0x90, 0x90, 0xb0, 0x00, 0x00, 0x00, 0x00, 0x00,
   0x00, 0x01, 0x03, 0x06, 0x04, 0x07, 0x07, 0x00, 0x78, 0x08, 0x08, 0x00 };
