#define huit_width 8
#define huit_height 22
static unsigned char huit_bits[] = {
   0x00, 0x38, 0xf8, 0xcc, 0xcc, 0xcc, 0xcc, 0xcc, 0xf8, 0x38, 0x00, 0x00,
   0x0f, 0x1f, 0x39, 0x30, 0x30, 0x30, 0x39, 0x1f, 0x0f, 0x00 };
