#define kmh_width 8
#define kmh_height 52
static unsigned char kmh_bits[] = {
   0x00, 0xf0, 0x00, 0x00, 0x80, 0x80, 0x00, 0x80, 0x80, 0x80, 0x80, 0x80,
   0x80, 0x80, 0x00, 0x00, 0x00, 0xc0, 0x60, 0x00, 0xf0, 0x80, 0x80, 0x80,
   0x80, 0x00, 0x00, 0x3f, 0x06, 0x0f, 0x19, 0x30, 0x00, 0x3f, 0x00, 0x00,
   0x3f, 0x00, 0x00, 0x3f, 0x3f, 0x40, 0x3c, 0x03, 0x00, 0x00, 0x3f, 0x01,
   0x00, 0x00, 0x3f, 0x00 };
