#define kmh2_width 8
#define kmh2_height 22
static unsigned char kmh2_bits[] = {
   0x00, 0x7c, 0x20, 0x50, 0x00, 0x70, 0x10, 0x60, 0x10, 0x60, 0x00, 0x00,
   0x01, 0x01, 0x01, 0x7d, 0x11, 0x11, 0x61, 0x01, 0x01, 0x00 };
