#define m_width 8
#define m_height 24
static unsigned char m_bits[] = {
   0x00, 0x80, 0x80, 0x80, 0x80, 0x80, 0x80, 0x80, 0x80, 0x80, 0x00, 0x00,
   0x00, 0x3f, 0x3f, 0x00, 0x00, 0x3f, 0x3f, 0x00, 0x00, 0x3f, 0x3f, 0x00 };
