#define ms_width 8
#define ms_height 48
static unsigned char ms_bits[] = {
   0x00, 0x80, 0x80, 0x80, 0x80, 0x80, 0x80, 0x80, 0x80, 0x80, 0x00, 0x00,
   0x00, 0x00, 0xc0, 0x60, 0x00, 0x00, 0x80, 0x80, 0x80, 0x80, 0x00, 0x00,
   0x00, 0x3f, 0x3f, 0x00, 0x00, 0x3f, 0x3f, 0x00, 0x00, 0x3f, 0x3f, 0x00,
   0x60, 0x3c, 0x03, 0x00, 0x00, 0x13, 0x27, 0x24, 0x24, 0x3c, 0x19, 0x00 };
