#define neuf_width 8
#define neuf_height 22
static unsigned char neuf_bits[] = {
   0x00, 0xf0, 0xf8, 0x9c, 0x0c, 0x0c, 0x0c, 0x98, 0xf8, 0xe0, 0x00, 0x00,
   0x00, 0x19, 0x33, 0x33, 0x33, 0x33, 0x19, 0x0f, 0x07, 0x00 };
