#define plus_width 8
#define plus_height 22
static unsigned char plus_bits[] = {
   0x00, 0x00, 0x80, 0x80, 0x80, 0xf0, 0x80, 0x80, 0x80, 0x00, 0x00, 0x00,
   0x00, 0x00, 0x00, 0x00, 0x07, 0x00, 0x00, 0x00, 0x00, 0x00 };
