#define quatre_width 8
#define quatre_height 22
static unsigned char quatre_bits[] = {
   0x00, 0x80, 0xe0, 0x70, 0x3c, 0x0c, 0xfc, 0xfc, 0x00, 0x00, 0x00, 0x00,
   0x0f, 0x0d, 0x0c, 0x0c, 0x0c, 0x3f, 0x3f, 0x0c, 0x0c, 0x00 };
