#define sept_width 8
#define sept_height 22
static unsigned char sept_bits[] = {
   0x00, 0x0c, 0x0c, 0x0c, 0x0c, 0x0c, 0x8c, 0xfc, 0x7c, 0x1c, 0x00, 0x00,
   0x00, 0x00, 0x20, 0x38, 0x3e, 0x07, 0x01, 0x00, 0x00, 0x00 };
