#define six_width 8
#define six_height 22
static unsigned char six_bits[] = {
   0x00, 0xe0, 0xf0, 0x98, 0xcc, 0xcc, 0xcc, 0xcc, 0x98, 0x00, 0x00, 0x00,
   0x07, 0x1f, 0x19, 0x30, 0x30, 0x30, 0x39, 0x1f, 0x0f, 0x00 };
