#define trois_width 8
#define trois_height 22
static unsigned char trois_bits[] = {
   0x00, 0x18, 0x0c, 0xcc, 0xcc, 0xcc, 0xcc, 0xcc, 0xf8, 0x38, 0x00, 0x00,
   0x18, 0x30, 0x30, 0x30, 0x30, 0x30, 0x39, 0x1f, 0x0f, 0x00 };
