#define un_width 8
#define un_height 22
static unsigned char un_bits[] = {
   0x00, 0x00, 0x18, 0x08, 0x0c, 0xfc, 0xfc, 0x00, 0x00, 0x00, 0x00, 0x00,
   0x00, 0x30, 0x30, 0x30, 0x3f, 0x3f, 0x30, 0x30, 0x30, 0x00 };
