#define zero_width 8
#define zero_height 22
static unsigned char zero_bits[] = {
   0x00, 0xe0, 0xf8, 0x18, 0x0c, 0x0c, 0x0c, 0x18, 0xf8, 0xe0, 0x00, 0x00,
   0x07, 0x1f, 0x18, 0x30, 0x30, 0x30, 0x18, 0x1f, 0x07, 0x00 };
